# xmcd
#
# Track frame offsets: 
#        150
#        20018
#        40811
#        59825
#        75277
#        101532
#        120576
#        145614
#        164317
#        183245
#        213870
#        238259
#
# Disc length: 3495 seconds
#
# Revision: 0
# Processed by: cddbd v1.4PL0 Copyright (c) Steve Scherf et al.
# Submitted via: ExactAudioCopy v0.95a3
#
DISCID=9b0da50c
DTITLE=Jacobs-Strain, David - Longest Road I Know
DYEAR=2001
DGENRE=Blues
TTITLE0=Highway Sixty-One Blues
TTITLE1=Going To Brownsville
TTITLE2=Bowlegged Charlie
TTITLE3=Wild Bill Jones
TTITLE4=Poor Black Mattie
TTITLE5=Bottle Up And Go
TTITLE6=Red Cross Store
TTITLE7=John Harding - Lining Track
TTITLE8=Mama Don't You Know?
TTITLE9=Poor Boy
TTITLE10=Skin And Bones
TTITLE11=Silver on Your Decks
EXTD=
EXTT0=
EXTT1=
EXTT2=
EXTT3=
EXTT4=
EXTT5=
EXTT6=
EXTT7=
EXTT8=
EXTT9=
EXTT10=
EXTT11=
PLAYORDER=
